<svg id="图层_1" data-name="图层 1" xmlns="http://www.w3.org/2000/svg" xmlns:xlink="http://www.w3.org/1999/xlink" viewBox="0 0 42 42"><defs><linearGradient id="未命名的渐变_1047" x1="23.65" y1="27.86" x2="34.54" y2="27.86" gradientUnits="userSpaceOnUse"><stop offset="0" stop-color="#cdf"/><stop offset="0.82" stop-color="#fff"/></linearGradient><linearGradient id="未命名的渐变_1047-2" x1="18.99" y1="26.46" x2="29.6" y2="26.46" xlink:href="#未命名的渐变_1047"/><linearGradient id="未命名的渐变_1050" x1="10.25" y1="30.99" x2="25.37" y2="30.99" gradientUnits="userSpaceOnUse"><stop offset="0.09" stop-color="#cdf"/><stop offset="0.89" stop-color="#fdfdff"/><stop offset="1" stop-color="#fff"/></linearGradient><linearGradient id="未命名的渐变_1047-3" x1="7.51" y1="20.81" x2="22.63" y2="20.81" xlink:href="#未命名的渐变_1047"/></defs><title>敏捷开发-42X42</title><rect width="42" height="42" rx="3.94" ry="3.94" style="fill:#69f"/><path d="M28.24,32.39l-4.59-7.95L27.84,22l6.7,11.47L31,33.72A2.87,2.87,0,0,1,28.24,32.39Z" style="fill:url(#未命名的渐变_1047)"/><path d="M27.74,21.82h0a2.64,2.64,0,0,0-.82-.81,2.32,2.32,0,0,0-3.18.8L19,29.75l4.16,2.49L25.69,28h0l0-.07.28-.47c.68-1.09,2.31-3.35,3.59-2.48Z" style="fill:url(#未命名的渐变_1047-2)"/><path d="M20.68,33.42H10.25V28.57H25.37C23.88,31.68,23.27,33.42,20.68,33.42Z" style="fill:url(#未命名的渐变_1050)"/><path d="M13.43,29.2l9.2-15.9L20,8.19,7.91,29A3,3,0,0,0,9,33.18a1.75,1.75,0,0,0,.87.23h5.64A3,3,0,0,1,13.43,29.2Z" style="fill:url(#未命名的渐变_1047-3)"/></svg>
