<svg id="图层_1" data-name="图层 1" xmlns="http://www.w3.org/2000/svg" xmlns:xlink="http://www.w3.org/1999/xlink" viewBox="0 0 42 42"><defs><linearGradient id="未命名的渐变_850" x1="25.92" y1="14.59" x2="25.92" y2="14.59" gradientUnits="userSpaceOnUse"><stop offset="0" stop-color="#c8fae2"/><stop offset="0.77" stop-color="#fff"/></linearGradient><linearGradient id="未命名的渐变_850-2" x1="22.31" y1="33.01" x2="22.31" y2="14.59" xlink:href="#未命名的渐变_850"/><linearGradient id="未命名的渐变_850-3" x1="-2125.87" y1="2167.56" x2="-2125.87" y2="2151" gradientTransform="matrix(1, 0, 0, -1, 2144.14, 2171.44)" xlink:href="#未命名的渐变_850"/><linearGradient id="未命名的渐变_850-4" x1="18.7" y1="14.33" x2="32" y2="14.33" xlink:href="#未命名的渐变_850"/><clipPath id="clip-path"><rect x="62.52" y="-5.55" width="42" height="42" rx="4" ry="4" style="fill:#9d9dfc"/></clipPath></defs><title>测试管理-42X42</title><rect width="42" height="42" rx="3.94" ry="3.94" style="fill:#3ddc91"/><polygon points="25.93 14.59 25.92 14.59 25.93 14.59 25.93 14.59" style="fill:url(#未命名的渐变_850)"/><path d="M25.92,14.59H18.7V27.3c0,3.15,1.74,3.89,4.85,5.71V16.9A2.43,2.43,0,0,1,25.92,14.59Z" style="fill:url(#未命名的渐变_850-2)"/><path d="M18.76,3.88H20.7a0,0,0,0,1,0,0v11.7a4.85,4.85,0,0,1-4.85,4.85h0a0,0,0,0,1,0,0V6.8a2.92,2.92,0,0,1,2.92-2.92Z" transform="translate(30.43 -6.11) rotate(90)" style="fill:url(#未命名的渐变_850-3)"/><path d="M21.62,9.73a2.92,2.92,0,0,0-2.92,2.92v1.94h0v4.33h0a4.57,4.57,0,0,1,4.43-4.33h4A4.85,4.85,0,0,0,32,9.73Z" style="fill:url(#未命名的渐变_850-4)"/><rect x="62.52" y="-5.55" width="42" height="42" rx="4" ry="4" style="fill:#9d9dfc"/><g style="clip-path:url(#clip-path)"><rect x="-119.48" y="-221.55" width="1920" height="1080" style="fill:#9d9dfc"/></g></svg>
