<?xml version="1.0" encoding="UTF-8"?>
<svg width="21px" height="20px" viewBox="0 0 21 20" version="1.1" xmlns="http://www.w3.org/2000/svg" xmlns:xlink="http://www.w3.org/1999/xlink">
    <title>Dashboard</title>
    <defs>
        <linearGradient x1="13.5321515%" y1="50%" x2="71.4900542%" y2="50%" id="linearGradient-1">
            <stop stop-color="#FFE0C9" offset="0%"></stop>
            <stop stop-color="#FFFFFF" offset="100%"></stop>
        </linearGradient>
        <linearGradient x1="49.9998232%" y1="100%" x2="49.9998232%" y2="-0.00111620985%" id="linearGradient-2">
            <stop stop-color="#FFE0C9" offset="0%"></stop>
            <stop stop-color="#FFFFFF" offset="100%"></stop>
        </linearGradient>
        <linearGradient x1="49.9999729%" y1="100%" x2="50%" y2="31.2459208%" id="linearGradient-3">
            <stop stop-color="#FFE0C9" offset="0%"></stop>
            <stop stop-color="#FFFFFF" offset="100%"></stop>
        </linearGradient>
        <linearGradient x1="49.9998232%" y1="100%" x2="49.9998232%" y2="29.5026326%" id="linearGradient-4">
            <stop stop-color="#FFE0C9" offset="0%"></stop>
            <stop stop-color="#FFFFFF" offset="100%"></stop>
        </linearGradient>
    </defs>
    <g id="Dashboard" stroke="none" stroke-width="1" fill="none" fill-rule="evenodd" transform="translate(0.000000, 0.000000)">
        <g id="编组">
            <rect id="矩形" fill="#FFB77D" x="0" y="0" width="20" height="20" rx="2.5"></rect>
            <g id="编组-10" transform="translate(2.598425, 4.488189)">
                <path d="M10.981585,0.501905004 L5.43167386,7.86156972 C5.07454915,8.33596647 5.21450343,9.01739903 5.73040386,9.31178562 L5.73040386,9.31178562 C6.22748285,9.59555499 6.86065532,9.3991364 7.10967742,8.88275337 L7.10967742,8.88275337 L11.1089916,0.58008636 C11.1369825,0.522174244 11.0896876,0.471501143 11.0399797,0.471501143 L11.0399797,0.471501143 C11.0192278,0.471501143 10.9975108,0.48018796 10.981585,0.501905004" id="Fill-1" fill="url(#linearGradient-1)"></path>
                <path d="M7.25397511,-3.60054041e-14 C3.25417831,-3.60054041e-14 2.16889696e-13,3.11808484 2.16889696e-13,6.9499365 L2.16889696e-13,6.9499365 C2.16889696e-13,8.48702057 0.528448057,9.90441961 1.41402083,11.0563881 L1.41402083,11.0563881 C1.48544577,11.189586 1.79141478,11.4675641 1.79141478,11.4675641 L1.79141478,11.4675641 C1.96611633,11.588697 2.1475743,11.6736347 2.41397003,11.6736347 L2.41397003,11.6736347 C3.0490729,11.6736347 3.56400813,11.1389129 3.56400813,10.47968 L3.56400813,10.47968 C3.56400813,10.0989078 3.12580645,9.53909068 3.12580645,9.53909068 L3.12580645,9.53909068 C2.57853696,8.8007112 2.25808992,7.90982982 2.25808992,6.9499365 L2.25808992,6.9499365 C2.25808992,4.41145542 4.4992888,2.34592329 7.25397511,2.34592329 L7.25397511,2.34592329 C7.38379477,2.34592329 7.51264923,2.3512319 7.64005588,2.36136652 L7.64005588,2.36136652 C8.17815596,2.40431801 8.68199136,2.09738379 8.86248412,1.58823978 L8.86248412,1.58823978 C9.11971044,0.864338329 8.62407925,0.0863855728 7.85819152,0.0241300483 L7.85819152,0.0241300483 C7.65935992,0.00820421641 7.45763272,-3.60054041e-14 7.25397511,-3.60054041e-14 Z" id="Fill-5" fill="url(#linearGradient-2)"></path>
                <path d="M11.4376429,2.99598679 C11.106096,3.39702819 11.0872746,3.97180594 11.3956566,4.39070358 L11.3956566,4.39070358 C11.9332741,5.12232664 12.2503429,6.0016256 12.2503429,6.9499365 L12.2503429,6.9499365 C12.2503429,7.91031242 11.9250699,8.8002286 11.3778004,9.53812548 L11.3778004,9.53812548 C11.1210566,9.75819152 10.9545593,10.0863602 10.9545593,10.4589281 L10.9545593,10.4589281 C10.9545593,11.1210566 11.4714249,11.6586741 12.1084582,11.6586741 L12.1084582,11.6586741 C12.3671323,11.6586741 12.602159,11.5669799 12.7947168,11.4183388 L12.7947168,11.4183388 L12.7985776,11.4226822 C12.805334,11.4149606 13.0461519,11.1683515 13.1219202,11.0221234 L13.1219202,11.0221234 C13.9910846,9.87691135 14.5079502,8.47109474 14.5079502,6.9499365 L14.5079502,6.9499365 C14.5079502,5.51516383 14.0470663,4.18559817 13.2633223,3.07995936 L13.2633223,3.07995936 C13.0311913,2.75275591 12.6706883,2.58432817 12.310668,2.58432817 L12.310668,2.58432817 C11.9882906,2.58432817 11.6663957,2.71945644 11.4376429,2.99598679" id="Fill-7" fill="url(#linearGradient-3)"></path>
                <path d="M5.11219202,8.29011938 C5.11219202,8.97299975 5.66573533,9.52654305 6.3490983,9.52654305 L6.3490983,9.52654305 C7.03246126,9.52654305 7.58600457,8.97299975 7.58600457,8.29011938 L7.58600457,8.29011938 C7.58600457,7.60627381 7.03246126,7.05321311 6.3490983,7.05321311 L6.3490983,7.05321311 C5.66573533,7.05321311 5.11219202,7.60627381 5.11219202,8.29011938" id="Fill-3" fill="url(#linearGradient-4)"></path>
            </g>
        </g>
    </g>
</svg>